<svg width="241" height="246" viewBox="0 0 241 246" fill="none" xmlns="http://www.w3.org/2000/svg">
<path d="M240.932 94.0629C240.932 82.2062 235.257 71.7242 226.506 65.1257C235.257 58.5272 240.932 48.0453 240.932 36.1886C240.932 16.1869 224.797 0 204.935 0C193.518 0 183.365 5.36127 176.768 13.6781C170.17 5.36127 160.017 0 148.6 0C137.182 0 127.029 5.36127 120.432 13.6781C113.834 5.36127 103.681 0 92.2637 0C80.8461 0 70.6933 5.36127 64.0957 13.6781C57.4982 5.36127 47.3454 0 35.9278 0C16.135 0 0 16.2213 0 36.1886C0 48.0453 5.67461 58.5272 14.4258 65.1257C5.67461 71.7242 0 82.2062 0 94.0629C0 105.92 5.67461 116.402 14.4258 123C5.67461 129.598 0 140.08 0 151.937C0 163.794 5.67461 174.276 14.4258 180.874C5.67461 187.473 0 197.955 0 209.811C0 229.813 16.135 246 35.9962 246C47.4138 246 57.5665 240.639 64.1641 232.322C70.7617 240.639 80.9145 246 92.3321 246C103.75 246 113.902 240.639 120.5 232.322C127.098 240.639 137.25 246 148.668 246C160.086 246 170.238 240.639 176.836 232.322C183.433 240.639 193.586 246 205.004 246C224.899 246 241 229.779 241 209.811C241 197.955 235.325 187.473 226.574 180.874C235.325 174.276 241 163.794 241 151.937C241 140.08 235.325 129.598 226.574 123C235.325 116.402 241 105.92 241 94.0629H240.932Z" fill="#1E1E1E"/>
</svg>
