<?xml version="1.0" encoding="UTF-8"?><svg id="Layer_2" xmlns="http://www.w3.org/2000/svg" viewBox="0 0 335.68 181.15"><defs><style>.cls-1{fill:#ec4724;}</style></defs><g id="Layer_1-2"><path class="cls-1" d="M335.67,54.39c0-1.83-.05-3.65-.14-5.45-.02-.37-.05-.73-.06-1.1-.1-1.83-.24-3.66-.42-5.46-.04-.39-.09-.76-.13-1.14-.09-.86-.22-1.71-.33-2.57-3.77-26.45-17.66-37.81-46.85-37.81-21.73,0-35.31,5.82-49.7,16.22,8.88,18.06,10.41,33.98,10.41,52.65,0,9.09-.71,18.25-2.73,27.14-1.34,5.9-3.26,11.78-6.32,17.03-2.45,4.2-5.75,8.97-11.14,8.97s-9.28-4.15-9.28-9.27c0-.29,.06-.56,.06-.85,.02-4.47,1.33-9.18,1.98-13.59,.97-6.57,1.72-13.17,2.14-19.79,.86-13.43,1.02-27.37-2.21-40.52-2.02-8.21-5.6-16.16-11.27-22.44-5.15-5.71-11.89-9.87-19.12-12.49-14.34-5.19-30.88-5.12-45.3-.22-11.72,3.98-21.96,11.52-29.2,21.56-4.39,6.09-7.65,12.96-9.84,20.13h-5.77C101.61,15.06,82.85,.05,50.8,.05,32.04,.05,14.14,5.53,0,15.63c4.91,17.03,10.1,40.41,8.66,77.94l-2.88,72.46H100.41V85.06c0-8.46,6.69-15.32,15.32-15.32,2.71,0,5.23,.76,7.43,2,1.15,.64,2.24,1.38,3.21,2.31-7.98,37.24-2.88,79.86,35.43,97.7,12.73,5.22,26.48,8.43,40.89,9.2,.31,.02,.63,.03,.94,.04,1.67,.08,3.35,.12,5.04,.13,.38,0,.76,.02,1.14,.02,69.45-.12,125.72-56.38,125.87-125.82,0-.31,0-.62,0-.93Z"/></g></svg>