<?xml version="1.0" encoding="UTF-8"?>
<svg id="Layer_2" data-name="Layer 2" xmlns="http://www.w3.org/2000/svg" viewBox="0 0 142.03 142.03">
  <defs>
    <style>
      .cls-1 {
        fill: #fff;
      }
    </style>
  </defs>
  <g id="Layer_1-2" data-name="Layer 1">
    <path class="cls-1" d="m71.02,0C31.8,0,0,31.8,0,71.02s31.8,71.02,71.02,71.02,71.02-31.8,71.02-71.02S110.24,0,71.02,0Zm40.87,62.14h-.01c-.76.07-1.52.11-2.29.12-8.38,0-16.2-4.22-20.79-11.23v38.25c0,15.61-12.66,28.27-28.27,28.27s-28.27-12.66-28.27-28.27,12.66-28.27,28.27-28.27c.59,0,1.17.05,1.75.09v13.93c-.58-.07-1.15-.18-1.75-.18-7.97,0-14.43,6.46-14.43,14.43s6.46,14.43,14.43,14.43,15.01-6.28,15.01-14.25l.14-64.97h13.33c1.26,11.95,10.89,21.29,22.88,22.16v15.48Z"/>
  </g>
</svg>