<svg width="42" height="43" viewBox="0 0 42 43" fill="none" xmlns="http://www.w3.org/2000/svg">
<g id="majesticons:shopping-cart">
<g id="Group">
<path id="Vector" d="M36.0563 11.968L31.1396 26.718H12.6736L10.2152 11.968H36.0563Z" fill="#EC4724" stroke="#EC4724"/>
<g id="Vector_2">
<path d="M5.25 6.21802H8.75L9.625 11.468M9.625 11.468L12.25 27.218H31.5L36.75 11.468H9.625Z" fill="#EC4724"/>
<path d="M5.25 6.21802H8.75L9.625 11.468M9.625 11.468L12.25 27.218H31.5L36.75 11.468H9.625Z" stroke="#EC4724" stroke-width="2" stroke-linecap="round" stroke-linejoin="round"/>
</g>
<path id="Vector_3" d="M14 37.718C14.9665 37.718 15.75 36.9345 15.75 35.968C15.75 35.0015 14.9665 34.218 14 34.218C13.0335 34.218 12.25 35.0015 12.25 35.968C12.25 36.9345 13.0335 37.718 14 37.718Z" fill="#EC4724" stroke="#EC4724" stroke-width="2" stroke-linecap="round" stroke-linejoin="round"/>
<path id="Vector_4" d="M29.75 37.718C30.7165 37.718 31.5 36.9345 31.5 35.968C31.5 35.0015 30.7165 34.218 29.75 34.218C28.7835 34.218 28 35.0015 28 35.968C28 36.9345 28.7835 37.718 29.75 37.718Z" fill="#EC4724" stroke="#EC4724" stroke-width="2" stroke-linecap="round" stroke-linejoin="round"/>
</g>
</g>
</svg>
