<svg width="34" height="34" viewBox="0 0 34 34" fill="none" xmlns="http://www.w3.org/2000/svg">
<path id="Vector" d="M13.5895 15.4683C13.9099 15.2363 14.0646 14.8533 14.0646 14.3266C14.0756 14.0761 14.0241 13.8294 13.9136 13.6047C13.8141 13.4242 13.6668 13.2732 13.4863 13.1664C13.2992 13.0529 13.0914 12.9778 12.8749 12.9454C12.6392 12.9012 12.3998 12.8792 12.1641 12.8828H9.57494V15.8182H12.3777C12.8602 15.8219 13.269 15.704 13.5895 15.4683ZM14.0241 18.1201C13.6631 17.8439 13.1806 17.7076 12.5803 17.7076H9.56758V21.1697H12.5214C12.7976 21.1697 13.0517 21.1439 13.2985 21.0923C13.532 21.0467 13.7545 20.9566 13.9541 20.8271C14.1419 20.7056 14.2929 20.5399 14.4071 20.3263C14.5176 20.1126 14.5728 19.8401 14.5728 19.5123C14.5728 18.8604 14.3887 18.4 14.0241 18.1201ZM16.9668 0.50415C7.85497 0.50415 0.466797 7.89232 0.466797 17.0042C0.466797 26.116 7.85497 33.5042 16.9668 33.5042C26.0786 33.5042 33.4668 26.116 33.4668 17.0042C33.4668 7.89232 26.0786 0.50415 16.9668 0.50415ZM20.1526 11.0708H25.2499V12.312H20.1526V11.0708ZM16.9668 21.3059C16.7284 21.7585 16.3879 22.1494 15.9724 22.4477C15.5378 22.7497 15.0553 22.9707 14.5434 23.0996C14.0077 23.2431 13.4552 23.3137 12.9007 23.3095H6.80162V10.7467H12.7313C13.3316 10.7467 13.8767 10.8019 14.3739 10.905C14.8675 11.0082 15.2873 11.185 15.6409 11.4244C15.9908 11.6637 16.267 11.9842 16.4622 12.3819C16.6537 12.776 16.7532 13.2696 16.7532 13.8552C16.7532 14.4886 16.6095 15.0116 16.3223 15.4352C16.0313 15.8587 15.6114 16.2012 15.0406 16.4701C15.8177 16.6911 16.3886 17.0852 16.7642 17.6376C17.1473 18.1975 17.3351 18.8678 17.3351 19.6559C17.3351 20.2968 17.2136 20.8456 16.9668 21.3059ZM27.2351 19.3613H20.6646C20.6646 20.0758 20.9113 20.7608 21.2833 21.1292C21.659 21.4938 22.1967 21.6779 22.9002 21.6779C23.4084 21.6779 23.8393 21.549 24.2076 21.2949C24.5723 21.0408 24.7932 20.7719 24.8743 20.492H27.0767C26.7232 21.5858 26.1854 22.3667 25.4562 22.8381C24.7343 23.3095 23.8504 23.5452 22.8228 23.5452C22.1046 23.5452 21.4601 23.4274 20.8819 23.2027C20.3257 22.9854 19.8248 22.6539 19.4123 22.2267C19.0056 21.7879 18.6912 21.2719 18.4879 20.7093C18.2632 20.0868 18.1527 19.4313 18.1601 18.772C18.1601 18.0906 18.2743 17.4572 18.4953 16.8679C18.9188 15.7225 19.7991 14.8054 20.9224 14.3303C21.5227 14.0798 22.1672 13.9546 22.8191 13.962C23.5926 13.962 24.2629 14.1093 24.8448 14.4113C25.405 14.6997 25.8914 15.113 26.2665 15.6193C26.6384 16.1239 26.8999 16.6985 27.0657 17.3467C27.2241 17.9838 27.2793 18.6542 27.2351 19.3613ZM22.7418 15.8403C22.344 15.8403 22.0089 15.9103 21.7511 16.0466C21.4932 16.1828 21.2796 16.3523 21.1176 16.5475C20.9632 16.7359 20.8492 16.954 20.7824 17.1883C20.7235 17.3835 20.683 17.5824 20.6682 17.785H24.738C24.6791 17.1478 24.4581 16.6764 24.1635 16.3449C23.8541 16.0171 23.3569 15.8403 22.7418 15.8403Z" fill="white"/>
</svg>
