<svg width="34" height="34" viewBox="0 0 34 34" fill="none" xmlns="http://www.w3.org/2000/svg">
<path id="Vector" d="M16.9668 0.50415C7.85398 0.50415 0.466797 7.89134 0.466797 17.0042C0.466797 26.117 7.85398 33.5042 16.9668 33.5042C26.0796 33.5042 33.4668 26.117 33.4668 17.0042C33.4668 7.89134 26.0796 0.50415 16.9668 0.50415ZM12.9277 23.8431H9.58648V13.0906H12.9277V23.8431ZM11.2365 11.7706C10.1812 11.7706 9.49883 11.0229 9.49883 10.0982C9.49883 9.15462 10.2018 8.42931 11.2795 8.42931C12.3571 8.42931 13.0171 9.15462 13.0377 10.0982C13.0377 11.0229 12.3571 11.7706 11.2365 11.7706ZM25.1309 23.8431H21.7896V17.8841C21.7896 16.4971 21.3049 15.5552 20.0966 15.5552C19.1737 15.5552 18.6254 16.1929 18.383 16.8065C18.2937 17.0248 18.2713 17.3342 18.2713 17.6418V23.8413H14.9284V16.5195C14.9284 15.1771 14.8854 14.0548 14.8407 13.0888H17.7437L17.8966 14.5824H17.9637C18.4037 13.8812 19.4813 12.8465 21.2843 12.8465C23.4826 12.8465 25.1309 14.3195 25.1309 17.4854V23.8431Z" fill="white"/>
</svg>
