<svg width="34" height="34" viewBox="0 0 34 34" fill="none" xmlns="http://www.w3.org/2000/svg">
<g id="Group 11">
<path id="Ellipse 9" d="M33.4668 17.0042C33.4668 26.1168 26.0795 33.5042 16.9668 33.5042C7.8541 33.5042 0.466797 26.1168 0.466797 17.0042C0.466797 7.89145 7.8541 0.50415 16.9668 0.50415C26.0795 0.50415 33.4668 7.89145 33.4668 17.0042Z" fill="white"/>
<path id="Vector" d="M16.964 11.6166C13.9826 11.6166 11.5766 14.0228 11.5766 17.0042C11.5766 19.9855 13.9826 22.3917 16.964 22.3917C19.9453 22.3917 22.3514 19.9855 22.3514 17.0042C22.3514 14.0228 19.9453 11.6166 16.964 11.6166ZM16.964 20.5056C15.036 20.5056 13.4625 18.9322 13.4625 17.0042C13.4625 15.0761 15.036 13.5027 16.964 13.5027C18.892 13.5027 20.4654 15.0761 20.4654 17.0042C20.4654 18.9322 18.892 20.5056 16.964 20.5056ZM22.572 10.1404C21.876 10.1404 21.3138 10.7025 21.3138 11.3986C21.3138 12.0947 21.876 12.6568 22.572 12.6568C23.2681 12.6568 23.8302 12.0973 23.8302 11.3986C23.8304 11.2333 23.798 11.0696 23.7349 10.9169C23.6717 10.7641 23.5791 10.6253 23.4622 10.5085C23.3453 10.3916 23.2065 10.2989 23.0538 10.2357C22.901 10.1726 22.7373 10.1402 22.572 10.1404V10.1404ZM27.4656 17.0042C27.4656 15.5542 27.4788 14.1173 27.3973 12.67C27.3159 10.9888 26.9324 9.49683 25.7031 8.2675C24.4712 7.03554 22.9818 6.65466 21.3007 6.57323C19.8507 6.4918 18.4139 6.50493 16.9666 6.50493C15.5166 6.50493 14.0798 6.4918 12.6325 6.57323C10.9514 6.65466 9.45942 7.03817 8.23011 8.2675C6.99818 9.49945 6.6173 10.9888 6.53587 12.67C6.45444 14.12 6.46758 15.5568 6.46758 17.0042C6.46758 18.4515 6.45444 19.891 6.53587 21.3383C6.6173 23.0195 7.0008 24.5115 8.23011 25.7408C9.46205 26.9728 10.9514 27.3536 12.6325 27.4351C14.0825 27.5165 15.5193 27.5034 16.9666 27.5034C18.4166 27.5034 19.8534 27.5165 21.3007 27.4351C22.9818 27.3536 24.4738 26.9701 25.7031 25.7408C26.935 24.5088 27.3159 23.0195 27.3973 21.3383C27.4814 19.891 27.4656 18.4541 27.4656 17.0042V17.0042ZM25.1541 23.1981C24.9624 23.6762 24.7312 24.0334 24.3608 24.4011C23.9905 24.7715 23.6359 25.0027 23.1578 25.1944C21.7761 25.7434 18.4954 25.62 16.964 25.62C15.4326 25.62 12.1492 25.7434 10.7675 25.1971C10.2895 25.0053 9.93223 24.7742 9.56449 24.4038C9.19412 24.0334 8.96297 23.6788 8.77122 23.2007C8.22486 21.8164 8.34831 18.5356 8.34831 17.0042C8.34831 15.4727 8.22486 12.1893 8.77122 10.8076C8.96297 10.3295 9.19412 9.97227 9.56449 9.60453C9.93486 9.23678 10.2895 9.00299 10.7675 8.81124C12.1492 8.26487 15.4326 8.38833 16.964 8.38833C18.4954 8.38833 21.7788 8.26487 23.1604 8.81124C23.6385 9.00299 23.9957 9.23415 24.3635 9.60453C24.7338 9.9749 24.965 10.3295 25.1567 10.8076C25.7031 12.1893 25.5796 15.4727 25.5796 17.0042C25.5796 18.5356 25.7031 21.8164 25.1541 23.1981Z" fill="#1E1E1E"/>
</g>
</svg>
